<?xml version="1.0" encoding="utf-8"?>
<!DOCTYPE svg PUBLIC "-//W3C//DTD SVG 1.0//EN" "http://www.w3.org/TR/2001/REC-SVG-20010904/DTD/svg10.dtd">
<svg version="1.0" id="astrolabio" xmlns="http://www.w3.org/2000/svg" xmlns:xlink="http://www.w3.org/1999/xlink" x="0px" y="0px"
	 width="100%" height="100%" viewBox="0 0 855.709 855.714" enable-background="new 0 0 855.709 855.714"
	 xml:space="preserve">
<g>
	<path fill="#B78618" d="M855.709,427.853c0,236.305-191.552,427.862-427.859,427.862C191.562,855.714,0,664.158,0,427.853
		C0,191.557,191.562,0,427.851,0C664.158,0,855.709,191.557,855.709,427.853z"/>
	<path fill="#F4B923" d="M831.886,427.853c0,223.149-180.894,404.036-404.038,404.036c-223.136,0-404.024-180.887-404.024-404.036
		c0-223.138,180.888-404.027,404.024-404.027C650.993,23.825,831.886,204.714,831.886,427.853z"/>
	<path opacity="0.5" fill="#B78618" d="M800.133,270.583C738.796,125.573,595.205,23.825,427.848,23.825
		c-167.35,0-310.936,101.747-372.271,246.755c-4.354,22.984-6.636,46.702-6.636,70.953c0,209.27,169.643,378.916,378.912,378.916
		c209.275,0,378.917-169.646,378.917-378.916C806.769,317.283,804.487,293.566,800.133,270.583z"/>
	<path opacity="0.5" fill="#B78618" d="M666.523,262.69c0,131.813-106.854,238.669-238.669,238.669
		c-131.813,0-238.667-106.856-238.667-238.669c0-131.812,106.854-238.667,238.667-238.667
		C559.669,24.023,666.523,130.878,666.523,262.69z"/>
	<path fill="#F4B923" d="M490.984,422.328c-13.104-75.94-81.952-46.199-81.952-46.199L72.892,590.066l300.431-162.233
		c27.395,85.061,83.774,46.825,83.774,46.825l288.88-178.984L490.984,422.328z M450.781,429.782
		c-0.795,9.347-9.012,16.274-18.356,15.479c-9.34-0.795-16.276-9.012-15.481-18.358c0.795-9.342,9.02-16.269,18.359-15.474
		C444.648,412.224,451.576,420.44,450.781,429.782z"/>
	<circle fill="#B78618" cx="425.622" cy="782.443" r="35.275"/>
	<circle fill="#CCA35A" cx="425.622" cy="777.109" r="35.275"/>
	
		<circle fill="none" stroke="#B78618" stroke-width="2.8891" stroke-linecap="round" stroke-linejoin="round" stroke-miterlimit="10" cx="425.622" cy="777.109" r="21.853"/>
	
		<path fill="none" stroke="#B78618" stroke-width="2.2889" stroke-linecap="round" stroke-linejoin="round" stroke-miterlimit="10" d="
		M454.381,778.955c0,14.864-12.05,26.914-26.914,26.914"/>
</g>
</svg>
