<?xml version="1.0" encoding="utf-8"?>
<!DOCTYPE svg PUBLIC "-//W3C//DTD SVG 1.0//EN" "http://www.w3.org/TR/2001/REC-SVG-20010904/DTD/svg10.dtd">
<svg version="1.0" id="camera" xmlns="http://www.w3.org/2000/svg" xmlns:xlink="http://www.w3.org/1999/xlink" x="0px" y="0px"
	 width="100%" height="100%" viewBox="0 0 48 48" enable-background="new 0 0 48 48" xml:space="preserve">
	
	<g id="body">
		<g >
			<rect id="line-body" x="17.25" y="18" fill="#F9C646" width="21" height="15.75"/>
			<path id="head-cam" fill="#FCE06B" d="M34.5,17.25H21.75l2.025-3.975c0.15-0.3,0.45-0.525,0.825-0.525h7.051c0.375,0,0.675,0.225,0.824,0.525
				L34.5,17.25z"/>
			<path id="top-body"  fill="#F2F2F2" d="M38.25,19.5h-21v-3h4.875H34.05h2.325c1.05,0,1.875,0.975,1.875,1.95V19.5z"/>
			<path id="red-circ" fill="#FF6161" d="M21.375,20.625c-0.6,0-1.125-0.525-1.125-1.125s0.525-1.125,1.125-1.125S22.5,18.9,22.5,19.5
				S21.975,20.625,21.375,20.625z"/>
			<path id="bottom-body" fill="#F2F2F2" d="M16.5,35.25v-3h11.625l0,0H38.25v1.425c0,1.05-0.825,1.575-1.875,1.575H16.5z"/>


			<g id="lens">
				<path fill="#FFFFFF" d="M25.875,19.275C26.7,18.9,27.6,18.75,28.5,18.75c0.975,0,1.8,0.225,2.625,0.525
					c2.4,1.05,4.125,3.45,4.125,6.225c0,3.75-3,6.75-6.75,6.75l0,0c-3.75,0-6.75-3.075-6.75-6.75
					C21.75,22.725,23.475,20.325,25.875,19.275z"/>
				<path fill="#385784" d="M23.25,25.5c0-2.925,2.325-5.25,5.25-5.25s5.25,2.325,5.25,5.25s-2.325,5.25-5.25,5.25
					S23.25,28.425,23.25,25.5z"/>
				<path fill="#5083B5" d="M28.5,29.25c-2.1,0-3.75-1.65-3.75-3.75c0-2.1,1.65-3.75,3.75-3.75s3.75,1.65,3.75,3.75
					C32.25,27.6,30.6,29.25,28.5,29.25z M28.5,22.875c-1.425,0-2.625,1.2-2.625,2.625s1.2,2.625,2.625,2.625s2.625-1.2,2.625-2.625
					S29.925,22.875,28.5,22.875z"/>
				<circle fill="#B2D3EA" cx="28.125" cy="24.75" r="1.125"/>
				<circle fill="#B2D3EA" cx="29.25" cy="26.625" r="0.75"/>
			</g>
		</g>
		<g id="shoot-body">
			<path id="shooter" fill="#5C7A93" d="M15.75,16.5h-3c-0.45,0-0.75-0.3-0.75-0.75v-1.5c0-0.45,0.3-0.75,0.75-0.75h3c0.45,0,0.75,0.3,0.75,0.75
				v1.5C16.5,16.2,16.2,16.5,15.75,16.5z"/>
			<path id="top-shoot" fill="#FFFFFF" d="M16.2,14.775h0.45c1.05,0,1.875,0.825,1.875,1.875v2.85H9.75v-2.85c0-0.975,0.825-1.875,1.8-1.875H12H16.2z
				"/>
			<path id="bottom-shoot" fill="#FFFFFF" d="M18.45,33.675c0,1.05-0.825,1.575-1.875,1.575h-1.35H11.55c-0.975,0-1.8-0.6-1.8-1.575V30.75h8.7v2.025
				V33.675z"/>
			<polygon id="line-shoot" fill="#FCE06B" points="18.45,18 18.45,19.425 18.45,31.5 9.75,31.5 9.75,18 	"/>
		</g>
	</g>
</svg>
