<?xml version="1.0" encoding="utf-8"?>
<!DOCTYPE svg PUBLIC "-//W3C//DTD SVG 1.0//EN" "http://www.w3.org/TR/2001/REC-SVG-20010904/DTD/svg10.dtd">
<svg version="1.0" id="Layer_1" xmlns="http://www.w3.org/2000/svg" xmlns:xlink="http://www.w3.org/1999/xlink" x="0px" y="0px"
	 width="100%" height="100%" viewBox="0 0 22 22" enable-background="new 0 0 22 22" xml:space="preserve">
<path fill-rule="evenodd" clip-rule="evenodd" fill="#B68517" d="M21.285,2.279c0.405-0.404,0.405-1.067,0-1.471l-0.093-0.093
	c-0.404-0.405-1.066-0.405-1.471,0L11.736,8.7c-0.404,0.405-1.067,0.405-1.472,0L2.279,0.715c-0.405-0.405-1.067-0.405-1.472,0
	L0.715,0.808c-0.405,0.405-0.405,1.067,0,1.471L8.7,10.264c0.405,0.405,0.405,1.067,0,1.472l-7.985,7.985
	c-0.405,0.405-0.405,1.067,0,1.472l0.092,0.092c0.405,0.405,1.067,0.405,1.472,0l7.985-7.985c0.405-0.405,1.067-0.405,1.472,0
	l7.985,7.985c0.405,0.405,1.067,0.405,1.471,0l0.093-0.092c0.405-0.405,0.405-1.067,0-1.472L13.3,11.736
	c-0.405-0.405-0.405-1.067,0-1.472L21.285,2.279z"/>
</svg>
