<?xml version="1.0" encoding="utf-8"?>
<!-- Generator: Adobe Illustrator 16.0.4, SVG Export Plug-In . SVG Version: 6.00 Build 0)  -->
<!DOCTYPE svg PUBLIC "-//W3C//DTD SVG 1.0//EN" "http://www.w3.org/TR/2001/REC-SVG-20010904/DTD/svg10.dtd">
<svg version="1.0" id="Layer_1" xmlns="http://www.w3.org/2000/svg" xmlns:xlink="http://www.w3.org/1999/xlink" x="0px" y="0px"
	 width="100%" height="100%" viewBox="0 0 48 44.932" enable-background="new 0 0 48 44.932" xml:space="preserve">
<g>
	<path fill-rule="evenodd" clip-rule="evenodd" fill="#ffffff" d="M6.071,12.791C5.819,9.217,7.009,6.867,9.676,5.617
		c2.653-1.244,5.178-0.629,7.798,1.9c2.288-5.606,8.251-8.466,13.884-7.235c5.433,1.188,9.719,6.148,9.47,12.23
		c0.544,0.159,1.101,0.287,1.633,0.482c3.515,1.283,5.878,4.964,5.499,8.538c-0.428,4.04-3.307,7.22-7.174,7.688
		c-1.803,0.219-3.646,0.124-5.471,0.123c-1.661,0-3.322-0.063-4.973-0.1c-0.288-4.414-3.841-6.486-6.869-6.237
		c-2.892,0.236-5.578,2.542-5.77,6.135c-0.658,0.069-1.324,0.192-1.991,0.199c-2.417,0.024-4.836,0.03-7.253,0.006
		c-4.854-0.047-8.711-4.095-8.448-8.838c0.193-3.475,2.406-6.423,5.691-7.585C5.817,12.885,5.93,12.843,6.071,12.791z"/>
	<path fill-rule="evenodd" clip-rule="evenodd" fill="#ffffff" d="M26.822,35.557c0.641-0.654,1.268-1.322,1.924-1.96
		c0.747-0.726,1.649-0.964,2.645-0.651c0.988,0.312,1.617,1.003,1.838,2.02c0.194,0.895-0.03,1.711-0.671,2.358
		c-2.299,2.324-4.606,4.642-6.937,6.935c-0.927,0.912-2.318,0.894-3.246-0.022c-2.314-2.285-4.617-4.583-6.9-6.899
		c-1.054-1.068-0.996-2.7,0.07-3.745c1.043-1.023,2.647-1.039,3.711-0.01c0.66,0.639,1.286,1.313,1.927,1.972
		c0.044-0.016,0.089-0.031,0.133-0.047c0.009-0.176,0.025-0.352,0.025-0.527c0.002-1.913-0.011-3.826,0.008-5.739
		c0.013-1.243,0.836-2.262,2.003-2.55c1.162-0.286,2.395,0.194,2.946,1.25c0.231,0.443,0.362,0.987,0.373,1.489
		c0.041,2.015,0.017,4.031,0.017,6.047C26.734,35.502,26.778,35.529,26.822,35.557z"/>
</g>
</svg>
