<?xml version="1.0" encoding="utf-8"?>
<!DOCTYPE svg PUBLIC "-//W3C//DTD SVG 1.0//EN" "http://www.w3.org/TR/2001/REC-SVG-20010904/DTD/svg10.dtd">
<svg version="1.0" id="Layer_1" xmlns="http://www.w3.org/2000/svg" xmlns:xlink="http://www.w3.org/1999/xlink" x="0px" y="0px"
	 width="38.999px" height="30.001px" viewBox="0 0 38.999 30.001" enable-background="new 0 0 38.999 30.001" xml:space="preserve">
<g>
	<path fill="#FFFFFF" d="M37.645,10.833c-0.135-0.028-0.277-0.033-0.416-0.033c-11.678-0.001-23.356,0.006-35.034-0.013
		C1.091,10.784,0.321,11.118,0,12.209c0,0.175,0,0.351,0,0.526c0.155,0.691,0.324,1.38,0.464,2.075
		c0.925,4.595,1.842,9.191,2.766,13.786C3.409,29.489,4.069,30,5.029,30c7.434,0.001,14.867,0.001,22.301,0.001
		c2.249,0,4.498,0,6.748-0.001c1.123,0,1.713-0.493,1.919-1.571c0.979-5.119,1.961-10.238,2.946-15.356
		C39.171,11.886,38.697,11.052,37.645,10.833z"/>
	<path fill="#FFFFFF" d="M5.694,8.357C5.945,8.355,6.203,8.33,6.445,8.269c6.094-1.53,12.187-3.065,18.279-4.6
		c1.608-0.405,3.217-0.81,4.859-1.223c0.042,0.113,0.076,0.18,0.092,0.251c0.409,1.766,0.821,3.531,1.216,5.3
		c0.058,0.258,0.131,0.374,0.433,0.371c1.64-0.017,3.279-0.008,4.918-0.009c0.11,0,0.219-0.015,0.346-0.024
		c0-0.441,0.025-0.854-0.004-1.264c-0.083-1.139-0.876-2.036-2.022-2.224c-0.533-0.087-1.088-0.057-1.633-0.058
		c-0.225,0-0.335-0.05-0.387-0.292c-0.209-0.978-0.453-1.948-0.669-2.925c-0.276-1.248-1.157-1.793-2.419-1.493
		c-3.969,0.944-7.938,1.886-11.907,2.827c-0.587,0.139-1.175,0.275-1.754,0.41c-0.041-0.077-0.066-0.108-0.075-0.143
		c-0.335-1.304-1.221-1.994-2.574-1.995c-2.694-0.002-5.389-0.004-8.083,0.001C3.584,1.184,2.529,2.21,2.519,3.653
		C2.509,5.08,2.515,6.507,2.516,7.935c0,0.133,0.014,0.266,0.022,0.426C3.615,8.361,4.654,8.366,5.694,8.357z"/>
</g>
</svg>
