<?xml version="1.0" encoding="utf-8"?>
<!DOCTYPE svg PUBLIC "-//W3C//DTD SVG 1.0//EN" "http://www.w3.org/TR/2001/REC-SVG-20010904/DTD/svg10.dtd">
<svg version="1.0" id="Layer_1" xmlns="http://www.w3.org/2000/svg" xmlns:xlink="http://www.w3.org/1999/xlink" x="0px" y="0px"
	 width="184px" height="25.997px" viewBox="0 0 184 25.997" enable-background="new 0 0 184 25.997" xml:space="preserve">
<g>
	<path fill="#FFFFFF" d="M109.395,14.521c-0.277-0.048-1.209-0.204-1.48-0.253c-1.471-0.266-2.729-0.609-2.729-2.096
		c0-1.275,1.332-1.869,2.988-1.869c2.465,0,4.627,1.121,4.874,1.245l1.351-3.58c-0.521-0.271-2.719-1.45-6.183-1.45
		c-3.174,0-7.048,1.672-7.048,5.834c0,3.725,2.65,4.919,5.205,5.371c0.354,0.064,1.46,0.255,1.779,0.311
		c1.718,0.293,2.66,0.934,2.66,2.063c0,1.432-1.34,2.103-3.367,2.103c-3.25,0-5.156-0.973-5.706-1.199l-1.497,3.502
		c0.465,0.24,2.683,1.496,7.01,1.496c4.2,0,7.568-2.09,7.568-5.975C114.787,16.405,112.366,15.034,109.395,14.521z"/>
	<path fill="#FFFFFF" d="M122.216,0l-3.973,2.208v4.674h-2.093v3.816h2.093v8.25c0,3.523,1.442,6.688,6.53,6.688h1.591v-3.818
		h-0.597c-2.502,0-3.553-1.449-3.553-3.417v-7.701h4.564V6.881h-4.564L122.216,0L122.216,0z"/>
	<path fill="#FFFFFF" d="M153.264,10.397c1.551,0,3.141,0.708,3.616,2.421l3.606-1.376c-1.01-3.583-4.326-4.924-7.252-4.924
		c-5.24,0-7.354,3.267-7.354,6.444v6.589c0,3.176,2.113,6.445,7.354,6.445c2.926,0,6.242-1.342,7.252-4.926l-3.606-1.375
		c-0.476,1.713-2.065,2.422-3.616,2.422c-2.701,0-3.416-1.484-3.416-3.176V13.57C149.846,11.88,150.562,10.397,153.264,10.397z"/>
	<polygon fill="#FFFFFF" points="177.686,6.881 172.799,6.881 166.409,14.224 166.409,0.001 162.432,0.001 162.432,25.635 
		166.409,25.635 166.409,19.667 167.713,18.186 173.404,25.635 178.172,25.635 170.256,15.304 	"/>
	<polygon fill="#FFFFFF" points="179.404,7.304 180.184,7.304 180.184,9.461 180.604,9.461 180.604,7.304 181.383,7.304 
		181.383,6.881 179.404,6.881 	"/>
	<polygon fill="#FFFFFF" points="183.527,6.884 182.814,8.559 182.107,6.884 181.641,6.884 181.641,9.461 182.057,9.461 
		182.057,8.282 181.98,7.569 182.018,7.569 182.23,8.188 182.654,9.104 182.984,9.104 183.404,8.188 183.622,7.578 183.659,7.578 
		183.578,8.278 183.578,9.461 184,9.461 184,6.884 	"/>
	<path fill="#FFFFFF" d="M137.896,6.882h-4.131c-2.91,0-5.267,2.364-5.267,5.286v4.502h4.077v-4.502
		c0-0.658,0.531-1.194,1.189-1.194h4.131V6.882z"/>
	<path fill="#FFFFFF" d="M139.857,20.347c0,0.659-0.534,1.194-1.188,1.194h-4.134v4.094h4.134c2.908,0,5.267-2.368,5.267-5.289v-4.5
		h-4.078V20.347L139.857,20.347z"/>
	<path fill="#FFFFFF" d="M67.141,0l-3.975,2.208v4.674h-6.688V0l-3.977,2.208v4.674h-2.015v3.816h2.015v8.25
		c0,3.523,1.441,6.688,6.529,6.688h1.593v-3.818h-0.595c-2.5,0-3.551-1.449-3.551-3.417v-7.701h6.688v8.25
		c0,3.522,1.439,6.688,6.528,6.688h1.591v-3.819h-0.597c-2.499,0-3.548-1.45-3.548-3.417V10.7h4.563V6.881h-4.563V0H67.141z"/>
	<path fill="#FFFFFF" d="M24.239,6.518c-1.259,0-2.535,0.244-3.681,0.733V0h-3.976v25.633h3.976V10.98
		c0.797-0.502,1.948-0.804,3.072-0.804c2.497,0,3.673,1.395,3.673,3.452v12.008h3.971V13.082
		C31.274,9.297,28.543,6.518,24.239,6.518z"/>
	<path fill="#FFFFFF" d="M44.382,21.907c-0.755,0.408-1.711,0.643-2.662,0.643c-2.965,0-4.081-1.518-4.081-3.609V6.882h-3.974
		v12.131c0,4.717,2.715,6.985,7.566,6.985c2.323,0,4.896-0.59,7.124-1.558V6.882h-3.973V21.907z"/>
	<path fill="#FFFFFF" d="M9.151,14.521c-0.275-0.048-1.207-0.204-1.48-0.253c-1.467-0.266-2.729-0.609-2.729-2.096
		c0-1.275,1.331-1.869,2.988-1.869c2.465,0,4.627,1.121,4.874,1.245l1.35-3.58c-0.515-0.271-2.718-1.45-6.183-1.45
		c-3.171,0-7.046,1.672-7.046,5.834c0,3.725,2.646,4.919,5.205,5.371c0.352,0.064,1.46,0.255,1.781,0.311
		c1.717,0.293,2.656,0.934,2.656,2.063c0,1.432-1.336,2.103-3.364,2.103c-3.251,0-5.158-0.973-5.708-1.199L0,24.502
		c0.466,0.24,2.682,1.496,7.01,1.496c4.199,0,7.568-2.09,7.568-5.975C14.543,16.405,12.122,15.034,9.151,14.521z"/>
	<path fill="#FFFFFF" d="M80.85,6.517c-5.314,0-7.355,3.332-7.355,6.445v6.229c0,4.308,2.744,6.806,7.355,6.806
		c4.071,0,6.183-2.361,6.81-3.781l-3.354-2.022c-0.287,0.834-1.616,2.003-3.428,2.003c-2.458,0-3.403-1.377-3.403-3.102
		l-0.015-1.026h10.676v-5.105C88.137,9.532,85.533,6.517,80.85,6.517z M84.162,14.836H77.46v-1.364c0-1.522,0.761-3.155,3.372-3.155
		c2.517,0,3.33,1.591,3.33,3.081V14.836z"/>
	<path fill="#FFFFFF" d="M90.679,12.969v12.667h3.971V13.311c0-1.077,0.609-2.917,3.524-2.917c0.459,0,1.493,0.13,1.826,0.193V6.719
		c-0.358-0.086-1.181-0.201-2.028-0.201C92.921,6.517,90.679,9.697,90.679,12.969z"/>
</g>
</svg>
