<?xml version="1.0" encoding="utf-8"?>
<!DOCTYPE svg PUBLIC "-//W3C//DTD SVG 1.0//EN" "http://www.w3.org/TR/2001/REC-SVG-20010904/DTD/svg10.dtd">
<svg version="1.0" id="Layer_1" xmlns="http://www.w3.org/2000/svg" xmlns:xlink="http://www.w3.org/1999/xlink" x="0px" y="0px"
	 width="46.003px" height="46.001px" viewBox="0 0 46.003 46.001" enable-background="new 0 0 46.003 46.001" xml:space="preserve">
<g>
	<path fill="#FFFFFF" d="M44.316,37.733c-2.698-2.323-5.399-4.643-8.1-6.964c-1.513-1.301-3.026-2.603-4.558-3.919
		C37.185,18.4,34.161,8.24,27.573,3.397c-6.698-4.924-15.958-4.46-21.994,1.166C-0.524,10.25-1.78,19.435,2.606,26.355
		c2.274,3.588,5.414,6.103,9.474,7.357c5.212,1.612,10.14,0.844,14.758-2.059c0.121,0.131,0.228,0.24,0.327,0.356
		c3.512,4.086,7.024,8.172,10.533,12.261c0.974,1.135,2.195,1.759,3.695,1.73c1.918-0.038,3.709-1.395,4.352-3.236
		C46.376,40.951,45.837,39.042,44.316,37.733z M17.286,30.62c-7.344,0.013-13.35-5.99-13.354-13.348
		C3.927,9.889,9.861,3.939,17.254,3.912c7.323-0.027,13.339,5.949,13.374,13.283C30.664,24.552,24.646,30.606,17.286,30.62z"/>
	<path fill="#FFFFFF" d="M23.025,7.165c-1.194-0.706-2.49-1.159-3.774-1.353c-0.593-0.01-0.987,0.264-1.157,0.737
		c-0.281,0.785,0.217,1.495,1.183,1.744c3.748,0.964,6.062,3.348,6.999,7.095c0.073,0.291,0.197,0.593,0.378,0.828
		c0.349,0.454,0.969,0.559,1.47,0.316c0.464-0.226,0.7-0.705,0.598-1.239C28.044,11.728,26.147,9.01,23.025,7.165z"/>
</g>
</svg>
